<?xml version="1.0" standalone="no"?>
<!DOCTYPE svg PUBLIC "-//W3C//DTD SVG 20010904//EN"
 "http://www.w3.org/TR/2001/REC-SVG-20010904/DTD/svg10.dtd">
<svg version="1.0" xmlns="http://www.w3.org/2000/svg"
 width="96.000000pt" height="96.000000pt" viewBox="0 0 96.000000 96.000000"
 preserveAspectRatio="xMidYMid meet">
<metadata>
Created by potrace 1.14, written by Peter Selinger 2001-2017
</metadata>
<g transform="translate(0.000000,96.000000) scale(0.100000,-0.100000)"
fill="#000000" stroke="none">
<path d="M338 941 c-248 -80 -388 -334 -323 -586 43 -162 178 -296 345 -340
120 -32 271 -9 375 57 177 112 262 330 210 533 -43 162 -192 307 -355 344 -70
16 -188 12 -252 -8z m257 -37 c82 -21 171 -79 226 -147 142 -177 129 -425 -31
-587 -182 -185 -488 -169 -651 33 -142 176 -129 429 30 587 115 114 269 155
426 114z"/>
<path d="M373 632 c-26 -4 -25 5 -24 -206 0 -70 2 -130 5 -133 2 -3 32 -4 66
-4 144 0 210 59 210 184 0 62 -26 110 -76 139 -29 17 -132 29 -181 20z m147
-50 c41 -20 62 -58 63 -116 1 -78 -46 -134 -119 -142 -73 -7 -72 -8 -72 134 1
70 3 130 5 135 8 14 88 7 123 -11z"/>
</g>
</svg>
